<svg width="23" height="20" viewBox="0 0 23 20" fill="none" xmlns="http://www.w3.org/2000/svg">
<path d="M11.4995 19.2609C11.1062 19.2609 10.7307 19.1362 10.4133 18.9001C8.2588 17.3012 3.10938 13.3239 1.81755 10.9143C0.127895 7.76543 1.14258 3.72131 4.07489 1.89968C5.02253 1.31177 6.09533 1 7.18601 1C8.81755 1 10.3508 1.66808 11.4995 2.85726C12.6483 1.66808 14.1815 1 15.8131 1C16.9038 1 17.9766 1.31177 18.9242 1.89968C21.8565 3.72131 22.8712 7.76543 21.186 10.9143C19.8942 13.3239 14.7448 17.3012 12.5902 18.9001C12.2684 19.1362 11.8929 19.2609 11.4995 19.2609Z" fill="#FF0000" stroke="#FF0000" stroke-width="0.7"/>
</svg>
